<svg width="1500" height="696" viewBox="0 0 1500 696" xmlns="http://www.w3.org/2000/svg"><rect x="0" y="0" width="1500" height="696" fill="#fff6f9"/><defs><style>text.body{font-family: Georgia, "Segoe UI", sans-serif;}</style></defs><path d="M20 40 q 60 -10 110 20 q 40 20 80 -10" stroke="#a9704f" stroke-width="3" fill="none" opacity="0.85"/><g><animateTransform attributeName="transform" type="rotate" values="0 50 48; 12 50 48; 0 50 48; -12 50 48; 0 50 48" dur="3.2s" begin="0.0s" repeatCount="indefinite"/><ellipse cx="50" cy="41.95" rx="3.52" ry="6.050000000000001" fill="#ffc4dd" opacity="0.95" transform="rotate(0 50 48)"/><ellipse cx="50" cy="41.95" rx="3.52" ry="6.050000000000001" fill="#ffc4dd" opacity="0.95" transform="rotate(72 50 48)"/><ellipse cx="50" cy="41.95" rx="3.52" ry="6.050000000000001" fill="#ffc4dd" opacity="0.95" transform="rotate(144 50 48)"/><ellipse cx="50" cy="41.95" rx="3.52" ry="6.050000000000001" fill="#ffc4dd" opacity="0.95" transform="rotate(216 50 48)"/><ellipse cx="50" cy="41.95" rx="3.52" ry="6.050000000000001" fill="#ffc4dd" opacity="0.95" transform="rotate(288 50 48)"/><circle cx="50" cy="48" r="2.42" fill="#d8a6bb" opacity="0.95"/></g><g><animateTransform attributeName="transform" type="rotate" values="0 75 37; 12 75 37; 0 75 37; -12 75 37; 0 75 37" dur="3.5s" begin="0.2s" repeatCount="indefinite"/><ellipse cx="75" cy="30.95" rx="3.52" ry="6.050000000000001" fill="#ffc4dd" opacity="0.95" transform="rotate(0 75 37)"/><ellipse cx="75" cy="30.95" rx="3.52" ry="6.050000000000001" fill="#ffc4dd" opacity="0.95" transform="rotate(72 75 37)"/><ellipse cx="75" cy="30.95" rx="3.52" ry="6.050000000000001" fill="#ffc4dd" opacity="0.95" transform="rotate(144 75 37)"/><ellipse cx="75" cy="30.95" rx="3.52" ry="6.050000000000001" fill="#ffc4dd" opacity="0.95" transform="rotate(216 75 37)"/><ellipse cx="75" cy="30.95" rx="3.52" ry="6.050000000000001" fill="#ffc4dd" opacity="0.95" transform="rotate(288 75 37)"/><circle cx="75" cy="37" r="2.42" fill="#d8a6bb" opacity="0.95"/></g><g><animateTransform attributeName="transform" type="rotate" values="0 120 55; 12 120 55; 0 120 55; -12 120 55; 0 120 55" dur="3.8000000000000003s" begin="0.4s" repeatCount="indefinite"/><ellipse cx="120" cy="48.95" rx="3.52" ry="6.050000000000001" fill="#ffc4dd" opacity="0.95" transform="rotate(0 120 55)"/><ellipse cx="120" cy="48.95" rx="3.52" ry="6.050000000000001" fill="#ffc4dd" opacity="0.95" transform="rotate(72 120 55)"/><ellipse cx="120" cy="48.95" rx="3.52" ry="6.050000000000001" fill="#ffc4dd" opacity="0.95" transform="rotate(144 120 55)"/><ellipse cx="120" cy="48.95" rx="3.52" ry="6.050000000000001" fill="#ffc4dd" opacity="0.95" transform="rotate(216 120 55)"/><ellipse cx="120" cy="48.95" rx="3.52" ry="6.050000000000001" fill="#ffc4dd" opacity="0.95" transform="rotate(288 120 55)"/><circle cx="120" cy="55" r="2.42" fill="#d8a6bb" opacity="0.95"/></g><g><animateTransform attributeName="transform" type="rotate" values="0 150 65; 12 150 65; 0 150 65; -12 150 65; 0 150 65" dur="4.1s" begin="0.6000000000000001s" repeatCount="indefinite"/><ellipse cx="150" cy="58.95" rx="3.52" ry="6.050000000000001" fill="#ffc4dd" opacity="0.95" transform="rotate(0 150 65)"/><ellipse cx="150" cy="58.95" rx="3.52" ry="6.050000000000001" fill="#ffc4dd" opacity="0.95" transform="rotate(72 150 65)"/><ellipse cx="150" cy="58.95" rx="3.52" ry="6.050000000000001" fill="#ffc4dd" opacity="0.95" transform="rotate(144 150 65)"/><ellipse cx="150" cy="58.95" rx="3.52" ry="6.050000000000001" fill="#ffc4dd" opacity="0.95" transform="rotate(216 150 65)"/><ellipse cx="150" cy="58.95" rx="3.52" ry="6.050000000000001" fill="#ffc4dd" opacity="0.95" transform="rotate(288 150 65)"/><circle cx="150" cy="65" r="2.42" fill="#d8a6bb" opacity="0.95"/></g><path d="M1340 40 q -60 -10 -110 20 q -40 20 -80 -10" stroke="#a9704f" stroke-width="3" fill="none" opacity="0.85"/><g><animateTransform attributeName="transform" type="rotate" values="0 1310 48; 12 1310 48; 0 1310 48; -12 1310 48; 0 1310 48" dur="3.2s" begin="0.0s" repeatCount="indefinite"/><ellipse cx="1310" cy="41.95" rx="3.52" ry="6.050000000000001" fill="#ffc4dd" opacity="0.95" transform="rotate(0 1310 48)"/><ellipse cx="1310" cy="41.95" rx="3.52" ry="6.050000000000001" fill="#ffc4dd" opacity="0.95" transform="rotate(72 1310 48)"/><ellipse cx="1310" cy="41.95" rx="3.52" ry="6.050000000000001" fill="#ffc4dd" opacity="0.95" transform="rotate(144 1310 48)"/><ellipse cx="1310" cy="41.95" rx="3.52" ry="6.050000000000001" fill="#ffc4dd" opacity="0.95" transform="rotate(216 1310 48)"/><ellipse cx="1310" cy="41.95" rx="3.52" ry="6.050000000000001" fill="#ffc4dd" opacity="0.95" transform="rotate(288 1310 48)"/><circle cx="1310" cy="48" r="2.42" fill="#d8a6bb" opacity="0.95"/></g><g><animateTransform attributeName="transform" type="rotate" values="0 1285 37; 12 1285 37; 0 1285 37; -12 1285 37; 0 1285 37" dur="3.5s" begin="0.2s" repeatCount="indefinite"/><ellipse cx="1285" cy="30.95" rx="3.52" ry="6.050000000000001" fill="#ffc4dd" opacity="0.95" transform="rotate(0 1285 37)"/><ellipse cx="1285" cy="30.95" rx="3.52" ry="6.050000000000001" fill="#ffc4dd" opacity="0.95" transform="rotate(72 1285 37)"/><ellipse cx="1285" cy="30.95" rx="3.52" ry="6.050000000000001" fill="#ffc4dd" opacity="0.95" transform="rotate(144 1285 37)"/><ellipse cx="1285" cy="30.95" rx="3.52" ry="6.050000000000001" fill="#ffc4dd" opacity="0.95" transform="rotate(216 1285 37)"/><ellipse cx="1285" cy="30.95" rx="3.52" ry="6.050000000000001" fill="#ffc4dd" opacity="0.95" transform="rotate(288 1285 37)"/><circle cx="1285" cy="37" r="2.42" fill="#d8a6bb" opacity="0.95"/></g><g><animateTransform attributeName="transform" type="rotate" values="0 1240 55; 12 1240 55; 0 1240 55; -12 1240 55; 0 1240 55" dur="3.8000000000000003s" begin="0.4s" repeatCount="indefinite"/><ellipse cx="1240" cy="48.95" rx="3.52" ry="6.050000000000001" fill="#ffc4dd" opacity="0.95" transform="rotate(0 1240 55)"/><ellipse cx="1240" cy="48.95" rx="3.52" ry="6.050000000000001" fill="#ffc4dd" opacity="0.95" transform="rotate(72 1240 55)"/><ellipse cx="1240" cy="48.95" rx="3.52" ry="6.050000000000001" fill="#ffc4dd" opacity="0.95" transform="rotate(144 1240 55)"/><ellipse cx="1240" cy="48.95" rx="3.52" ry="6.050000000000001" fill="#ffc4dd" opacity="0.95" transform="rotate(216 1240 55)"/><ellipse cx="1240" cy="48.95" rx="3.52" ry="6.050000000000001" fill="#ffc4dd" opacity="0.95" transform="rotate(288 1240 55)"/><circle cx="1240" cy="55" r="2.42" fill="#d8a6bb" opacity="0.95"/></g><g><animateTransform attributeName="transform" type="rotate" values="0 1210 65; 12 1210 65; 0 1210 65; -12 1210 65; 0 1210 65" dur="4.1s" begin="0.6000000000000001s" repeatCount="indefinite"/><ellipse cx="1210" cy="58.95" rx="3.52" ry="6.050000000000001" fill="#ffc4dd" opacity="0.95" transform="rotate(0 1210 65)"/><ellipse cx="1210" cy="58.95" rx="3.52" ry="6.050000000000001" fill="#ffc4dd" opacity="0.95" transform="rotate(72 1210 65)"/><ellipse cx="1210" cy="58.95" rx="3.52" ry="6.050000000000001" fill="#ffc4dd" opacity="0.95" transform="rotate(144 1210 65)"/><ellipse cx="1210" cy="58.95" rx="3.52" ry="6.050000000000001" fill="#ffc4dd" opacity="0.95" transform="rotate(216 1210 65)"/><ellipse cx="1210" cy="58.95" rx="3.52" ry="6.050000000000001" fill="#ffc4dd" opacity="0.95" transform="rotate(288 1210 65)"/><circle cx="1210" cy="65" r="2.42" fill="#d8a6bb" opacity="0.95"/></g><text x="750.0" y="112" text-anchor="middle" font-size="66" font-family="'Brush Script MT', 'Segoe Script', 'Comic Sans MS', cursive" fill="#e0559c">About me &#9825;</text><text x="750.0" y="148" text-anchor="middle" font-size="20" font-family="Georgia, 'Segoe UI', sans-serif" fill="#c084a8">&#10022; a little bit of code, a little bit of magic &#10022;</text><rect x="150" y="178" width="1200" height="92" rx="26" fill="#ffeef4" stroke="#ffc9dc" stroke-width="2" stroke-dasharray="6 5"/><g><animateTransform attributeName="transform" type="rotate" values="0 184 206; 12 184 206; 0 184 206; -12 184 206; 0 184 206" dur="3.0s" begin="0.2s" repeatCount="indefinite"/><ellipse cx="184" cy="198.85" rx="4.16" ry="7.15" fill="#ffb6cf" opacity="0.9" transform="rotate(0 184 206)"/><ellipse cx="184" cy="198.85" rx="4.16" ry="7.15" fill="#ffb6cf" opacity="0.9" transform="rotate(72 184 206)"/><ellipse cx="184" cy="198.85" rx="4.16" ry="7.15" fill="#ffb6cf" opacity="0.9" transform="rotate(144 184 206)"/><ellipse cx="184" cy="198.85" rx="4.16" ry="7.15" fill="#ffb6cf" opacity="0.9" transform="rotate(216 184 206)"/><ellipse cx="184" cy="198.85" rx="4.16" ry="7.15" fill="#ffb6cf" opacity="0.9" transform="rotate(288 184 206)"/><circle cx="184" cy="206" r="2.86" fill="#d89aaf" opacity="0.9"/></g><g><animateTransform attributeName="transform" type="rotate" values="0 1316 206; 12 1316 206; 0 1316 206; -12 1316 206; 0 1316 206" dur="3.4s" begin="0.5s" repeatCount="indefinite"/><ellipse cx="1316" cy="198.85" rx="4.16" ry="7.15" fill="#ffb6cf" opacity="0.9" transform="rotate(0 1316 206)"/><ellipse cx="1316" cy="198.85" rx="4.16" ry="7.15" fill="#ffb6cf" opacity="0.9" transform="rotate(72 1316 206)"/><ellipse cx="1316" cy="198.85" rx="4.16" ry="7.15" fill="#ffb6cf" opacity="0.9" transform="rotate(144 1316 206)"/><ellipse cx="1316" cy="198.85" rx="4.16" ry="7.15" fill="#ffb6cf" opacity="0.9" transform="rotate(216 1316 206)"/><ellipse cx="1316" cy="198.85" rx="4.16" ry="7.15" fill="#ffb6cf" opacity="0.9" transform="rotate(288 1316 206)"/><circle cx="1316" cy="206" r="2.86" fill="#d89aaf" opacity="0.9"/></g><text x="750.0" y="218" text-anchor="middle" font-size="19" font-style="italic" font-family="Georgia, 'Segoe UI', sans-serif" fill="#a15a78">"Somewhere between a blank canvas and a blank</text><text x="750.0" y="246" text-anchor="middle" font-size="19" font-style="italic" font-family="Georgia, 'Segoe UI', sans-serif" fill="#a15a78">code editor, I found where I belong." &#127808;</text><text x="750.0" y="316" text-anchor="middle" font-size="18" font-family="Georgia, 'Segoe UI', sans-serif" fill="#7a4a5a">Full Stack Developer &#215; Graphic Designer &nbsp; | &nbsp; building things that look as good as they work &#9749;</text><rect x="65.0" y="358" width="320" height="200" rx="28" fill="#ffb3c6" opacity="0.25"/><rect x="65.0" y="348" width="320" height="200" rx="28" fill="#fff0f4" stroke="#ffb3c6" stroke-width="2.5" stroke-dasharray="7 5"/><circle cx="225.0" cy="348" r="36" fill="#fff0f4" stroke="#ffb3c6" stroke-width="3"/><circle cx="225.0" cy="348" r="36" fill="none" stroke="#ffb3c6" stroke-width="1" stroke-dasharray="3 4" opacity="0.5"/><g transform="translate(225.0,348) scale(1.15)" fill="none" stroke="#bf8694" stroke-width="2.4" stroke-linecap="round" stroke-linejoin="round">
    <path d="M-16 -10 C-16 -13 -13 -14 -9 -13 L0 -10 L9 -13 C13 -14 16 -13 16 -10 L16 11 C16 13 13 14 9 13 L0 10 L-9 13 C-13 14 -16 13 -16 11 Z" fill="#ffffff" opacity="0.9"/>
    <path d="M0 -10 L0 10" />
    <path d="M-11 -6 L-4 -8" /><path d="M-11 -1 L-4 -3" /><path d="M-11 4 L-4 2" />
    </g><path d="M91.0 379.8 C 85.0 375.0 87.4 370.2 91.0 375.0 C 94.6 370.2 97.0 375.0 91.0 379.8 Z" fill="#ffb3c6" opacity="0.5"/><path d="M359.0 526.1 C 352.0 520.5 354.8 514.9 359.0 520.5 C 363.2 514.9 366.0 520.5 359.0 526.1 Z" fill="#ffb3c6" opacity="0.5"/><text x="225.0" y="424" text-anchor="middle" font-size="18" font-weight="bold" font-family="Georgia, 'Segoe UI', sans-serif" fill="#b27d8a">Currently learning</text><line x1="115.0" y1="440" x2="215.0" y2="440" stroke="#ffb3c6" stroke-width="1.5" stroke-dasharray="2 3"/><rect x="221.0" y="436" width="8" height="8" fill="#ffb3c6" transform="rotate(45 225.0 440)"/><line x1="235.0" y1="440" x2="335.0" y2="440" stroke="#ffb3c6" stroke-width="1.5" stroke-dasharray="2 3"/><text x="225.0" y="472" text-anchor="middle" font-size="14" font-family="Georgia, 'Segoe UI', sans-serif" fill="#8a6a78">Java &amp;</text><text x="225.0" y="493" text-anchor="middle" font-size="14" font-family="Georgia, 'Segoe UI', sans-serif" fill="#8a6a78">Data Structures (DSA)</text><g><animateTransform attributeName="transform" type="rotate" values="0 363.0 502; 12 363.0 502; 0 363.0 502; -12 363.0 502; 0 363.0 502" dur="3.2s" begin="0.0s" repeatCount="indefinite"/><ellipse cx="363.0" cy="496.5" rx="3.2" ry="5.5" fill="#ffb3c6" opacity="0.7" transform="rotate(0 363.0 502)"/><ellipse cx="363.0" cy="496.5" rx="3.2" ry="5.5" fill="#ffb3c6" opacity="0.7" transform="rotate(72 363.0 502)"/><ellipse cx="363.0" cy="496.5" rx="3.2" ry="5.5" fill="#ffb3c6" opacity="0.7" transform="rotate(144 363.0 502)"/><ellipse cx="363.0" cy="496.5" rx="3.2" ry="5.5" fill="#ffb3c6" opacity="0.7" transform="rotate(216 363.0 502)"/><ellipse cx="363.0" cy="496.5" rx="3.2" ry="5.5" fill="#ffb3c6" opacity="0.7" transform="rotate(288 363.0 502)"/><circle cx="363.0" cy="502" r="2.2" fill="#d898a8" opacity="0.7"/></g><rect x="415.0" y="358" width="320" height="200" rx="28" fill="#c9b6f7" opacity="0.25"/><rect x="415.0" y="348" width="320" height="200" rx="28" fill="#f6f1ff" stroke="#c9b6f7" stroke-width="2.5" stroke-dasharray="7 5"/><circle cx="575.0" cy="348" r="36" fill="#f6f1ff" stroke="#c9b6f7" stroke-width="3"/><circle cx="575.0" cy="348" r="36" fill="none" stroke="#c9b6f7" stroke-width="1" stroke-dasharray="3 4" opacity="0.5"/><g transform="translate(575.0,348) scale(1.15)" fill="none" stroke="#9688b9" stroke-width="2.2" stroke-linecap="round">
    <circle cx="0" cy="0" r="14" fill="#ffffff" opacity="0.9" stroke="#9688b9"/>
    <path d="M-14 0 C-6 -8 6 8 14 0" />
    <path d="M-10 -9 C-3 3 8 -6 11 8" />
    <path d="M-11 8 C0 3 5 -9 9 -10" />
    <path d="M11 3 L18 6" stroke-width="2"/>
    <circle cx="19" cy="7" r="1.6" fill="#9688b9" stroke="none"/>
    </g><path d="M441.0 379.8 C 435.0 375.0 437.4 370.2 441.0 375.0 C 444.6 370.2 447.0 375.0 441.0 379.8 Z" fill="#c9b6f7" opacity="0.5"/><path d="M709.0 526.1 C 702.0 520.5 704.8 514.9 709.0 520.5 C 713.2 514.9 716.0 520.5 709.0 526.1 Z" fill="#c9b6f7" opacity="0.5"/><text x="575.0" y="424" text-anchor="middle" font-size="18" font-weight="bold" font-family="Georgia, 'Segoe UI', sans-serif" fill="#8c7fac">Currently weaving</text><line x1="465.0" y1="440" x2="565.0" y2="440" stroke="#c9b6f7" stroke-width="1.5" stroke-dasharray="2 3"/><rect x="571.0" y="436" width="8" height="8" fill="#c9b6f7" transform="rotate(45 575.0 440)"/><line x1="585.0" y1="440" x2="685.0" y2="440" stroke="#c9b6f7" stroke-width="1.5" stroke-dasharray="2 3"/><text x="575.0" y="472" text-anchor="middle" font-size="14" font-family="Georgia, 'Segoe UI', sans-serif" fill="#8a6a78">Personal projects &</text><text x="575.0" y="493" text-anchor="middle" font-size="14" font-family="Georgia, 'Segoe UI', sans-serif" fill="#8a6a78">full stack challenges</text><g><animateTransform attributeName="transform" type="rotate" values="0 713.0 502; 12 713.0 502; 0 713.0 502; -12 713.0 502; 0 713.0 502" dur="3.5s" begin="0.25s" repeatCount="indefinite"/><ellipse cx="713.0" cy="496.5" rx="3.2" ry="5.5" fill="#c9b6f7" opacity="0.7" transform="rotate(0 713.0 502)"/><ellipse cx="713.0" cy="496.5" rx="3.2" ry="5.5" fill="#c9b6f7" opacity="0.7" transform="rotate(72 713.0 502)"/><ellipse cx="713.0" cy="496.5" rx="3.2" ry="5.5" fill="#c9b6f7" opacity="0.7" transform="rotate(144 713.0 502)"/><ellipse cx="713.0" cy="496.5" rx="3.2" ry="5.5" fill="#c9b6f7" opacity="0.7" transform="rotate(216 713.0 502)"/><ellipse cx="713.0" cy="496.5" rx="3.2" ry="5.5" fill="#c9b6f7" opacity="0.7" transform="rotate(288 713.0 502)"/><circle cx="713.0" cy="502" r="2.2" fill="#aa9ad1" opacity="0.7"/></g><rect x="765.0" y="358" width="320" height="200" rx="28" fill="#ffd39a" opacity="0.25"/><rect x="765.0" y="348" width="320" height="200" rx="28" fill="#fff8ee" stroke="#ffd39a" stroke-width="2.5" stroke-dasharray="7 5"/><circle cx="925.0" cy="348" r="36" fill="#fff8ee" stroke="#ffd39a" stroke-width="3"/><circle cx="925.0" cy="348" r="36" fill="none" stroke="#ffd39a" stroke-width="1" stroke-dasharray="3 4" opacity="0.5"/><g transform="translate(925.0,348) scale(1.15)">
    <path d="M10 -14 A14 14 0 1 0 10 14 A11 11 0 0 1 10 -14 Z" fill="#bf9e73"/>
    <path d="M-8 -16 l1.6 3.6 3.6 1.6 -3.6 1.6 -1.6 3.6 -1.6 -3.6 -3.6 -1.6 3.6 -1.6 Z" fill="#bf9e73" opacity="0.85"/>
    <circle cx="-14" cy="4" r="1.6" fill="#bf9e73" opacity="0.8"/>
    </g><path d="M791.0 379.8 C 785.0 375.0 787.4 370.2 791.0 375.0 C 794.6 370.2 797.0 375.0 791.0 379.8 Z" fill="#ffd39a" opacity="0.5"/><path d="M1059.0 526.1 C 1052.0 520.5 1054.8 514.9 1059.0 520.5 C 1063.2 514.9 1066.0 520.5 1059.0 526.1 Z" fill="#ffd39a" opacity="0.5"/><text x="925.0" y="424" text-anchor="middle" font-size="18" font-weight="bold" font-family="Georgia, 'Segoe UI', sans-serif" fill="#b2936b">Chasing</text><line x1="815.0" y1="440" x2="915.0" y2="440" stroke="#ffd39a" stroke-width="1.5" stroke-dasharray="2 3"/><rect x="921.0" y="436" width="8" height="8" fill="#ffd39a" transform="rotate(45 925.0 440)"/><line x1="935.0" y1="440" x2="1035.0" y2="440" stroke="#ffd39a" stroke-width="1.5" stroke-dasharray="2 3"/><text x="925.0" y="472" text-anchor="middle" font-size="14" font-family="Georgia, 'Segoe UI', sans-serif" fill="#8a6a78">Becoming a</text><text x="925.0" y="493" text-anchor="middle" font-size="14" font-family="Georgia, 'Segoe UI', sans-serif" fill="#8a6a78">full stack developer</text><g><animateTransform attributeName="transform" type="rotate" values="0 1063.0 502; 12 1063.0 502; 0 1063.0 502; -12 1063.0 502; 0 1063.0 502" dur="3.8000000000000003s" begin="0.5s" repeatCount="indefinite"/><ellipse cx="1063.0" cy="496.5" rx="3.2" ry="5.5" fill="#ffd39a" opacity="0.7" transform="rotate(0 1063.0 502)"/><ellipse cx="1063.0" cy="496.5" rx="3.2" ry="5.5" fill="#ffd39a" opacity="0.7" transform="rotate(72 1063.0 502)"/><ellipse cx="1063.0" cy="496.5" rx="3.2" ry="5.5" fill="#ffd39a" opacity="0.7" transform="rotate(144 1063.0 502)"/><ellipse cx="1063.0" cy="496.5" rx="3.2" ry="5.5" fill="#ffd39a" opacity="0.7" transform="rotate(216 1063.0 502)"/><ellipse cx="1063.0" cy="496.5" rx="3.2" ry="5.5" fill="#ffd39a" opacity="0.7" transform="rotate(288 1063.0 502)"/><circle cx="1063.0" cy="502" r="2.2" fill="#d8b382" opacity="0.7"/></g><rect x="1115.0" y="358" width="320" height="200" rx="28" fill="#a8e0d4" opacity="0.25"/><rect x="1115.0" y="348" width="320" height="200" rx="28" fill="#eefaf7" stroke="#a8e0d4" stroke-width="2.5" stroke-dasharray="7 5"/><circle cx="1275.0" cy="348" r="36" fill="#eefaf7" stroke="#a8e0d4" stroke-width="3"/><circle cx="1275.0" cy="348" r="36" fill="none" stroke="#a8e0d4" stroke-width="1" stroke-dasharray="3 4" opacity="0.5"/><g transform="translate(1275.0,348) scale(1.15)" fill="none" stroke="#7ea89f" stroke-width="2.6" stroke-linecap="round" stroke-linejoin="round">
    <path d="M-14 2 A14 14 0 0 1 14 2" />
    <path d="M-14 2 L-14 12 A4 4 0 0 0 -6 12 L-6 4 A4 4 0 0 0 -14 4" fill="#7ea89f" opacity="0.9"/>
    <path d="M14 2 L14 12 A4 4 0 0 1 6 12 L6 4 A4 4 0 0 1 14 4" fill="#7ea89f" opacity="0.9"/>
    <path d="M-2 14 q 6 4 10 -2" stroke-width="2" opacity="0.9"/>
    </g><path d="M1141.0 379.8 C 1135.0 375.0 1137.4 370.2 1141.0 375.0 C 1144.6 370.2 1147.0 375.0 1141.0 379.8 Z" fill="#a8e0d4" opacity="0.5"/><path d="M1409.0 526.1 C 1402.0 520.5 1404.8 514.9 1409.0 520.5 C 1413.2 514.9 1416.0 520.5 1409.0 526.1 Z" fill="#a8e0d4" opacity="0.5"/><text x="1275.0" y="424" text-anchor="middle" font-size="18" font-weight="bold" font-family="Georgia, 'Segoe UI', sans-serif" fill="#759c94">Soundtrack</text><line x1="1165.0" y1="440" x2="1265.0" y2="440" stroke="#a8e0d4" stroke-width="1.5" stroke-dasharray="2 3"/><rect x="1271.0" y="436" width="8" height="8" fill="#a8e0d4" transform="rotate(45 1275.0 440)"/><line x1="1285.0" y1="440" x2="1385.0" y2="440" stroke="#a8e0d4" stroke-width="1.5" stroke-dasharray="2 3"/><text x="1275.0" y="472" text-anchor="middle" font-size="14" font-family="Georgia, 'Segoe UI', sans-serif" fill="#8a6a78">Lofi beats + the sound</text><text x="1275.0" y="493" text-anchor="middle" font-size="14" font-family="Georgia, 'Segoe UI', sans-serif" fill="#8a6a78">of a successful build</text><g><animateTransform attributeName="transform" type="rotate" values="0 1413.0 502; 12 1413.0 502; 0 1413.0 502; -12 1413.0 502; 0 1413.0 502" dur="4.1s" begin="0.75s" repeatCount="indefinite"/><ellipse cx="1413.0" cy="496.5" rx="3.2" ry="5.5" fill="#a8e0d4" opacity="0.7" transform="rotate(0 1413.0 502)"/><ellipse cx="1413.0" cy="496.5" rx="3.2" ry="5.5" fill="#a8e0d4" opacity="0.7" transform="rotate(72 1413.0 502)"/><ellipse cx="1413.0" cy="496.5" rx="3.2" ry="5.5" fill="#a8e0d4" opacity="0.7" transform="rotate(144 1413.0 502)"/><ellipse cx="1413.0" cy="496.5" rx="3.2" ry="5.5" fill="#a8e0d4" opacity="0.7" transform="rotate(216 1413.0 502)"/><ellipse cx="1413.0" cy="496.5" rx="3.2" ry="5.5" fill="#a8e0d4" opacity="0.7" transform="rotate(288 1413.0 502)"/><circle cx="1413.0" cy="502" r="2.2" fill="#8ebeb4" opacity="0.7"/></g><rect x="345.0" y="608" width="250" height="48" rx="24" fill="#ffeff3" stroke="#ffb3c6" stroke-width="2" stroke-dasharray="4 4"/><text x="470.0" y="639" text-anchor="middle" font-size="14" font-family="Georgia, 'Segoe UI', sans-serif" fill="#a57480">&#10084; designing & debugging</text><rect x="625.0" y="608" width="250" height="48" rx="24" fill="#f4f0fd" stroke="#c9b6f7" stroke-width="2" stroke-dasharray="4 4"/><text x="750.0" y="639" text-anchor="middle" font-size="14" font-family="Georgia, 'Segoe UI', sans-serif" fill="#8276a0">&#10084; coffee + code</text><rect x="905.0" y="608" width="250" height="48" rx="24" fill="#fff6ea" stroke="#ffd39a" stroke-width="2" stroke-dasharray="4 4"/><text x="1030.0" y="639" text-anchor="middle" font-size="14" font-family="Georgia, 'Segoe UI', sans-serif" fill="#a58964">&#10084; open to collaborations</text></svg>