<svg width="1500" height="1140" viewBox="0 0 1500 1140" xmlns="http://www.w3.org/2000/svg"><rect x="0" y="0" width="1500" height="1140" fill="#fff6f9"/><defs><style>text.body{font-family: Georgia, "Segoe UI", sans-serif;}</style></defs><text x="750.0" y="56" text-anchor="middle" font-size="30" font-family="'Brush Script MT', 'Segoe Script', 'Comic Sans MS', cursive" fill="#e0559c">Frontend</text><rect x="161.0" y="82" width="128" height="96" rx="20" fill="#f7cdc2" stroke="#e86746" stroke-width="2"/><g><animateTransform attributeName="transform" type="rotate" values="0 271.0 100; 12 271.0 100; 0 271.0 100; -12 271.0 100; 0 271.0 100" dur="3.0s" begin="0.0s" repeatCount="indefinite"/><ellipse cx="271.0" cy="93.4" rx="3.84" ry="6.6000000000000005" fill="#ea795c" opacity="0.9" transform="rotate(0 271.0 100)"/><ellipse cx="271.0" cy="93.4" rx="3.84" ry="6.6000000000000005" fill="#ea795c" opacity="0.9" transform="rotate(72 271.0 100)"/><ellipse cx="271.0" cy="93.4" rx="3.84" ry="6.6000000000000005" fill="#ea795c" opacity="0.9" transform="rotate(144 271.0 100)"/><ellipse cx="271.0" cy="93.4" rx="3.84" ry="6.6000000000000005" fill="#ea795c" opacity="0.9" transform="rotate(216 271.0 100)"/><ellipse cx="271.0" cy="93.4" rx="3.84" ry="6.6000000000000005" fill="#ea795c" opacity="0.9" transform="rotate(288 271.0 100)"/><circle cx="271.0" cy="100" r="2.64" fill="#c6664e" opacity="0.9"/></g><text class="body" x="215.0" y="136.0" text-anchor="middle" font-size="24" font-weight="bold" fill="#ab391c">5</text><text class="body" x="225.0" y="166" text-anchor="middle" font-size="13" fill="#8a5a6a">HTML5</text><rect x="311.0" y="82" width="128" height="96" rx="20" fill="#c3d3fb" stroke="#497cf3" stroke-width="2"/><g><animateTransform attributeName="transform" type="rotate" values="0 421.0 100; 12 421.0 100; 0 421.0 100; -12 421.0 100; 0 421.0 100" dur="3.4s" begin="0.3s" repeatCount="indefinite"/><ellipse cx="421.0" cy="93.4" rx="3.84" ry="6.6000000000000005" fill="#5e8bf4" opacity="0.9" transform="rotate(0 421.0 100)"/><ellipse cx="421.0" cy="93.4" rx="3.84" ry="6.6000000000000005" fill="#5e8bf4" opacity="0.9" transform="rotate(72 421.0 100)"/><ellipse cx="421.0" cy="93.4" rx="3.84" ry="6.6000000000000005" fill="#5e8bf4" opacity="0.9" transform="rotate(144 421.0 100)"/><ellipse cx="421.0" cy="93.4" rx="3.84" ry="6.6000000000000005" fill="#5e8bf4" opacity="0.9" transform="rotate(216 421.0 100)"/><ellipse cx="421.0" cy="93.4" rx="3.84" ry="6.6000000000000005" fill="#5e8bf4" opacity="0.9" transform="rotate(288 421.0 100)"/><circle cx="421.0" cy="100" r="2.64" fill="#4f76cf" opacity="0.9"/></g><text class="body" x="365.0" y="136.0" text-anchor="middle" font-size="24" font-weight="bold" fill="#1e4bb4">3</text><text class="body" x="375.0" y="166" text-anchor="middle" font-size="13" fill="#8a5a6a">CSS3</text><rect x="461.0" y="82" width="128" height="96" rx="20" fill="#f2e7bb" stroke="#dab831" stroke-width="2"/><g><animateTransform attributeName="transform" type="rotate" values="0 571.0 100; 12 571.0 100; 0 571.0 100; -12 571.0 100; 0 571.0 100" dur="3.8s" begin="0.6s" repeatCount="indefinite"/><ellipse cx="571.0" cy="93.4" rx="3.84" ry="6.6000000000000005" fill="#dec049" opacity="0.9" transform="rotate(0 571.0 100)"/><ellipse cx="571.0" cy="93.4" rx="3.84" ry="6.6000000000000005" fill="#dec049" opacity="0.9" transform="rotate(72 571.0 100)"/><ellipse cx="571.0" cy="93.4" rx="3.84" ry="6.6000000000000005" fill="#dec049" opacity="0.9" transform="rotate(144 571.0 100)"/><ellipse cx="571.0" cy="93.4" rx="3.84" ry="6.6000000000000005" fill="#dec049" opacity="0.9" transform="rotate(216 571.0 100)"/><ellipse cx="571.0" cy="93.4" rx="3.84" ry="6.6000000000000005" fill="#dec049" opacity="0.9" transform="rotate(288 571.0 100)"/><circle cx="571.0" cy="100" r="2.64" fill="#bca33e" opacity="0.9"/></g><text class="body" x="515.0" y="136.0" text-anchor="middle" font-size="24" font-weight="bold" fill="#9f8109">JS</text><text class="body" x="525.0" y="166" text-anchor="middle" font-size="13" fill="#8a5a6a">JavaScript</text><rect x="611.0" y="82" width="128" height="96" rx="20" fill="#c5d9ef" stroke="#4f8cce" stroke-width="2"/><g><animateTransform attributeName="transform" type="rotate" values="0 721.0 100; 12 721.0 100; 0 721.0 100; -12 721.0 100; 0 721.0 100" dur="3.0s" begin="0.8999999999999999s" repeatCount="indefinite"/><ellipse cx="721.0" cy="93.4" rx="3.84" ry="6.6000000000000005" fill="#6499d4" opacity="0.9" transform="rotate(0 721.0 100)"/><ellipse cx="721.0" cy="93.4" rx="3.84" ry="6.6000000000000005" fill="#6499d4" opacity="0.9" transform="rotate(72 721.0 100)"/><ellipse cx="721.0" cy="93.4" rx="3.84" ry="6.6000000000000005" fill="#6499d4" opacity="0.9" transform="rotate(144 721.0 100)"/><ellipse cx="721.0" cy="93.4" rx="3.84" ry="6.6000000000000005" fill="#6499d4" opacity="0.9" transform="rotate(216 721.0 100)"/><ellipse cx="721.0" cy="93.4" rx="3.84" ry="6.6000000000000005" fill="#6499d4" opacity="0.9" transform="rotate(288 721.0 100)"/><circle cx="721.0" cy="100" r="2.64" fill="#5582b4" opacity="0.9"/></g><text class="body" x="665.0" y="136.0" text-anchor="middle" font-size="24" font-weight="bold" fill="#245a94">TS</text><text class="body" x="675.0" y="166" text-anchor="middle" font-size="13" fill="#8a5a6a">TypeScript</text><rect x="761.0" y="82" width="128" height="96" rx="20" fill="#f5b7c5" stroke="#e2264f" stroke-width="2"/><g><animateTransform attributeName="transform" type="rotate" values="0 871.0 100; 12 871.0 100; 0 871.0 100; -12 871.0 100; 0 871.0 100" dur="3.4s" begin="0.0s" repeatCount="indefinite"/><ellipse cx="871.0" cy="93.4" rx="3.84" ry="6.6000000000000005" fill="#e53f64" opacity="0.9" transform="rotate(0 871.0 100)"/><ellipse cx="871.0" cy="93.4" rx="3.84" ry="6.6000000000000005" fill="#e53f64" opacity="0.9" transform="rotate(72 871.0 100)"/><ellipse cx="871.0" cy="93.4" rx="3.84" ry="6.6000000000000005" fill="#e53f64" opacity="0.9" transform="rotate(144 871.0 100)"/><ellipse cx="871.0" cy="93.4" rx="3.84" ry="6.6000000000000005" fill="#e53f64" opacity="0.9" transform="rotate(216 871.0 100)"/><ellipse cx="871.0" cy="93.4" rx="3.84" ry="6.6000000000000005" fill="#e53f64" opacity="0.9" transform="rotate(288 871.0 100)"/><circle cx="871.0" cy="100" r="2.64" fill="#c23555" opacity="0.9"/></g><text class="body" x="815.0" y="136.0" text-anchor="middle" font-size="24" font-weight="bold" fill="#a50024">A</text><text class="body" x="825.0" y="166" text-anchor="middle" font-size="13" fill="#8a5a6a">Angular</text><rect x="911.0" y="82" width="128" height="96" rx="20" fill="#bde3f0" stroke="#37acd1" stroke-width="2"/><g><animateTransform attributeName="transform" type="rotate" values="0 1021.0 100; 12 1021.0 100; 0 1021.0 100; -12 1021.0 100; 0 1021.0 100" dur="3.8s" begin="0.3s" repeatCount="indefinite"/><ellipse cx="1021.0" cy="93.4" rx="3.84" ry="6.6000000000000005" fill="#4eb6d7" opacity="0.9" transform="rotate(0 1021.0 100)"/><ellipse cx="1021.0" cy="93.4" rx="3.84" ry="6.6000000000000005" fill="#4eb6d7" opacity="0.9" transform="rotate(72 1021.0 100)"/><ellipse cx="1021.0" cy="93.4" rx="3.84" ry="6.6000000000000005" fill="#4eb6d7" opacity="0.9" transform="rotate(144 1021.0 100)"/><ellipse cx="1021.0" cy="93.4" rx="3.84" ry="6.6000000000000005" fill="#4eb6d7" opacity="0.9" transform="rotate(216 1021.0 100)"/><ellipse cx="1021.0" cy="93.4" rx="3.84" ry="6.6000000000000005" fill="#4eb6d7" opacity="0.9" transform="rotate(288 1021.0 100)"/><circle cx="1021.0" cy="100" r="2.64" fill="#429ab6" opacity="0.9"/></g><text class="body" x="965.0" y="136.0" text-anchor="middle" font-size="24" font-weight="bold" fill="#0f7697">R</text><text class="body" x="975.0" y="166" text-anchor="middle" font-size="13" fill="#8a5a6a">React</text><rect x="1061.0" y="82" width="128" height="96" rx="20" fill="#d9cee9" stroke="#8d6bbe" stroke-width="2"/><g><animateTransform attributeName="transform" type="rotate" values="0 1171.0 100; 12 1171.0 100; 0 1171.0 100; -12 1171.0 100; 0 1171.0 100" dur="3.0s" begin="0.6s" repeatCount="indefinite"/><ellipse cx="1171.0" cy="93.4" rx="3.84" ry="6.6000000000000005" fill="#9a7dc6" opacity="0.9" transform="rotate(0 1171.0 100)"/><ellipse cx="1171.0" cy="93.4" rx="3.84" ry="6.6000000000000005" fill="#9a7dc6" opacity="0.9" transform="rotate(72 1171.0 100)"/><ellipse cx="1171.0" cy="93.4" rx="3.84" ry="6.6000000000000005" fill="#9a7dc6" opacity="0.9" transform="rotate(144 1171.0 100)"/><ellipse cx="1171.0" cy="93.4" rx="3.84" ry="6.6000000000000005" fill="#9a7dc6" opacity="0.9" transform="rotate(216 1171.0 100)"/><ellipse cx="1171.0" cy="93.4" rx="3.84" ry="6.6000000000000005" fill="#9a7dc6" opacity="0.9" transform="rotate(288 1171.0 100)"/><circle cx="1171.0" cy="100" r="2.64" fill="#826aa8" opacity="0.9"/></g><text class="body" x="1115.0" y="136.0" text-anchor="middle" font-size="24" font-weight="bold" fill="#5a3d86">B</text><text class="body" x="1125.0" y="166" text-anchor="middle" font-size="13" fill="#8a5a6a">Bootstrap</text><rect x="1211.0" y="82" width="128" height="96" rx="20" fill="#bbe5ee" stroke="#32b2cc" stroke-width="2"/><g><animateTransform attributeName="transform" type="rotate" values="0 1321.0 100; 12 1321.0 100; 0 1321.0 100; -12 1321.0 100; 0 1321.0 100" dur="3.4s" begin="0.8999999999999999s" repeatCount="indefinite"/><ellipse cx="1321.0" cy="93.4" rx="3.84" ry="6.6000000000000005" fill="#4abbd2" opacity="0.9" transform="rotate(0 1321.0 100)"/><ellipse cx="1321.0" cy="93.4" rx="3.84" ry="6.6000000000000005" fill="#4abbd2" opacity="0.9" transform="rotate(72 1321.0 100)"/><ellipse cx="1321.0" cy="93.4" rx="3.84" ry="6.6000000000000005" fill="#4abbd2" opacity="0.9" transform="rotate(144 1321.0 100)"/><ellipse cx="1321.0" cy="93.4" rx="3.84" ry="6.6000000000000005" fill="#4abbd2" opacity="0.9" transform="rotate(216 1321.0 100)"/><ellipse cx="1321.0" cy="93.4" rx="3.84" ry="6.6000000000000005" fill="#4abbd2" opacity="0.9" transform="rotate(288 1321.0 100)"/><circle cx="1321.0" cy="100" r="2.64" fill="#3e9eb2" opacity="0.9"/></g><text class="body" x="1265.0" y="136.0" text-anchor="middle" font-size="24" font-weight="bold" fill="#0a7b93">TW</text><text class="body" x="1275.0" y="166" text-anchor="middle" font-size="13" fill="#8a5a6a">Tailwind</text><text x="750.0" y="280" text-anchor="middle" font-size="30" font-family="'Brush Script MT', 'Segoe Script', 'Comic Sans MS', cursive" fill="#e0559c">Backend</text><rect x="536.0" y="306" width="128" height="96" rx="20" fill="#d1d5ea" stroke="#7581c0" stroke-width="2"/><g><animateTransform attributeName="transform" type="rotate" values="0 646.0 324; 12 646.0 324; 0 646.0 324; -12 646.0 324; 0 646.0 324" dur="3.0s" begin="0.0s" repeatCount="indefinite"/><ellipse cx="646.0" cy="317.4" rx="3.84" ry="6.6000000000000005" fill="#8590c7" opacity="0.9" transform="rotate(0 646.0 324)"/><ellipse cx="646.0" cy="317.4" rx="3.84" ry="6.6000000000000005" fill="#8590c7" opacity="0.9" transform="rotate(72 646.0 324)"/><ellipse cx="646.0" cy="317.4" rx="3.84" ry="6.6000000000000005" fill="#8590c7" opacity="0.9" transform="rotate(144 646.0 324)"/><ellipse cx="646.0" cy="317.4" rx="3.84" ry="6.6000000000000005" fill="#8590c7" opacity="0.9" transform="rotate(216 646.0 324)"/><ellipse cx="646.0" cy="317.4" rx="3.84" ry="6.6000000000000005" fill="#8590c7" opacity="0.9" transform="rotate(288 646.0 324)"/><circle cx="646.0" cy="324" r="2.64" fill="#717aa9" opacity="0.9"/></g><text class="body" x="590.0" y="360.0" text-anchor="middle" font-size="24" font-weight="bold" fill="#455087">PHP</text><text class="body" x="600.0" y="390" text-anchor="middle" font-size="13" fill="#8a5a6a">PHP</text><rect x="686.0" y="306" width="128" height="96" rx="20" fill="#dacdef" stroke="#8e69d1" stroke-width="2"/><g><animateTransform attributeName="transform" type="rotate" values="0 796.0 324; 12 796.0 324; 0 796.0 324; -12 796.0 324; 0 796.0 324" dur="3.4s" begin="0.3s" repeatCount="indefinite"/><ellipse cx="796.0" cy="317.4" rx="3.84" ry="6.6000000000000005" fill="#9c7bd6" opacity="0.9" transform="rotate(0 796.0 324)"/><ellipse cx="796.0" cy="317.4" rx="3.84" ry="6.6000000000000005" fill="#9c7bd6" opacity="0.9" transform="rotate(72 796.0 324)"/><ellipse cx="796.0" cy="317.4" rx="3.84" ry="6.6000000000000005" fill="#9c7bd6" opacity="0.9" transform="rotate(144 796.0 324)"/><ellipse cx="796.0" cy="317.4" rx="3.84" ry="6.6000000000000005" fill="#9c7bd6" opacity="0.9" transform="rotate(216 796.0 324)"/><ellipse cx="796.0" cy="317.4" rx="3.84" ry="6.6000000000000005" fill="#9c7bd6" opacity="0.9" transform="rotate(288 796.0 324)"/><circle cx="796.0" cy="324" r="2.64" fill="#8468b5" opacity="0.9"/></g><text class="body" x="740.0" y="360.0" text-anchor="middle" font-size="24" font-weight="bold" fill="#5c3b96">.NET</text><text class="body" x="750.0" y="390" text-anchor="middle" font-size="13" fill="#8a5a6a">ASP.NET</text><rect x="836.0" y="306" width="128" height="96" rx="20" fill="#f3ddbc" stroke="#dc9a33" stroke-width="2"/><g><animateTransform attributeName="transform" type="rotate" values="0 946.0 324; 12 946.0 324; 0 946.0 324; -12 946.0 324; 0 946.0 324" dur="3.8s" begin="0.6s" repeatCount="indefinite"/><ellipse cx="946.0" cy="317.4" rx="3.84" ry="6.6000000000000005" fill="#e0a64b" opacity="0.9" transform="rotate(0 946.0 324)"/><ellipse cx="946.0" cy="317.4" rx="3.84" ry="6.6000000000000005" fill="#e0a64b" opacity="0.9" transform="rotate(72 946.0 324)"/><ellipse cx="946.0" cy="317.4" rx="3.84" ry="6.6000000000000005" fill="#e0a64b" opacity="0.9" transform="rotate(144 946.0 324)"/><ellipse cx="946.0" cy="317.4" rx="3.84" ry="6.6000000000000005" fill="#e0a64b" opacity="0.9" transform="rotate(216 946.0 324)"/><ellipse cx="946.0" cy="317.4" rx="3.84" ry="6.6000000000000005" fill="#e0a64b" opacity="0.9" transform="rotate(288 946.0 324)"/><circle cx="946.0" cy="324" r="2.64" fill="#be8d3f" opacity="0.9"/></g><text class="body" x="890.0" y="360.0" text-anchor="middle" font-size="24" font-weight="bold" fill="#a0660c">J</text><text class="body" x="900.0" y="390" text-anchor="middle" font-size="13" fill="#8a5a6a">Java</text><text x="750.0" y="504" text-anchor="middle" font-size="30" font-family="'Brush Script MT', 'Segoe Script', 'Comic Sans MS', cursive" fill="#e0559c">Database</text><rect x="536.0" y="530" width="128" height="96" rx="20" fill="#c7d9e6" stroke="#578cb3" stroke-width="2"/><g><animateTransform attributeName="transform" type="rotate" values="0 646.0 548; 12 646.0 548; 0 646.0 548; -12 646.0 548; 0 646.0 548" dur="3.0s" begin="0.0s" repeatCount="indefinite"/><ellipse cx="646.0" cy="541.4" rx="3.84" ry="6.6000000000000005" fill="#6b99bc" opacity="0.9" transform="rotate(0 646.0 548)"/><ellipse cx="646.0" cy="541.4" rx="3.84" ry="6.6000000000000005" fill="#6b99bc" opacity="0.9" transform="rotate(72 646.0 548)"/><ellipse cx="646.0" cy="541.4" rx="3.84" ry="6.6000000000000005" fill="#6b99bc" opacity="0.9" transform="rotate(144 646.0 548)"/><ellipse cx="646.0" cy="541.4" rx="3.84" ry="6.6000000000000005" fill="#6b99bc" opacity="0.9" transform="rotate(216 646.0 548)"/><ellipse cx="646.0" cy="541.4" rx="3.84" ry="6.6000000000000005" fill="#6b99bc" opacity="0.9" transform="rotate(288 646.0 548)"/><circle cx="646.0" cy="548" r="2.64" fill="#5a829f" opacity="0.9"/></g><text class="body" x="590.0" y="584.0" text-anchor="middle" font-size="24" font-weight="bold" fill="#2b5a7c">My</text><text class="body" x="600.0" y="614" text-anchor="middle" font-size="13" fill="#8a5a6a">MySQL</text><rect x="686.0" y="530" width="128" height="96" rx="20" fill="#edc7c3" stroke="#c9564a" stroke-width="2"/><g><animateTransform attributeName="transform" type="rotate" values="0 796.0 548; 12 796.0 548; 0 796.0 548; -12 796.0 548; 0 796.0 548" dur="3.4s" begin="0.3s" repeatCount="indefinite"/><ellipse cx="796.0" cy="541.4" rx="3.84" ry="6.6000000000000005" fill="#cf6a60" opacity="0.9" transform="rotate(0 796.0 548)"/><ellipse cx="796.0" cy="541.4" rx="3.84" ry="6.6000000000000005" fill="#cf6a60" opacity="0.9" transform="rotate(72 796.0 548)"/><ellipse cx="796.0" cy="541.4" rx="3.84" ry="6.6000000000000005" fill="#cf6a60" opacity="0.9" transform="rotate(144 796.0 548)"/><ellipse cx="796.0" cy="541.4" rx="3.84" ry="6.6000000000000005" fill="#cf6a60" opacity="0.9" transform="rotate(216 796.0 548)"/><ellipse cx="796.0" cy="541.4" rx="3.84" ry="6.6000000000000005" fill="#cf6a60" opacity="0.9" transform="rotate(288 796.0 548)"/><circle cx="796.0" cy="548" r="2.64" fill="#af5a51" opacity="0.9"/></g><text class="body" x="740.0" y="584.0" text-anchor="middle" font-size="24" font-weight="bold" fill="#902a20">MS</text><text class="body" x="750.0" y="614" text-anchor="middle" font-size="13" fill="#8a5a6a">MSSQL</text><rect x="836.0" y="530" width="128" height="96" rx="20" fill="#c9e2d3" stroke="#5ba97a" stroke-width="2"/><g><animateTransform attributeName="transform" type="rotate" values="0 946.0 548; 12 946.0 548; 0 946.0 548; -12 946.0 548; 0 946.0 548" dur="3.8s" begin="0.6s" repeatCount="indefinite"/><ellipse cx="946.0" cy="541.4" rx="3.84" ry="6.6000000000000005" fill="#6fb38a" opacity="0.9" transform="rotate(0 946.0 548)"/><ellipse cx="946.0" cy="541.4" rx="3.84" ry="6.6000000000000005" fill="#6fb38a" opacity="0.9" transform="rotate(72 946.0 548)"/><ellipse cx="946.0" cy="541.4" rx="3.84" ry="6.6000000000000005" fill="#6fb38a" opacity="0.9" transform="rotate(144 946.0 548)"/><ellipse cx="946.0" cy="541.4" rx="3.84" ry="6.6000000000000005" fill="#6fb38a" opacity="0.9" transform="rotate(216 946.0 548)"/><ellipse cx="946.0" cy="541.4" rx="3.84" ry="6.6000000000000005" fill="#6fb38a" opacity="0.9" transform="rotate(288 946.0 548)"/><circle cx="946.0" cy="548" r="2.64" fill="#5e9875" opacity="0.9"/></g><text class="body" x="890.0" y="584.0" text-anchor="middle" font-size="24" font-weight="bold" fill="#2f734a">Mo</text><text class="body" x="900.0" y="614" text-anchor="middle" font-size="13" fill="#8a5a6a">MongoDB</text><text x="750.0" y="728" text-anchor="middle" font-size="30" font-family="'Brush Script MT', 'Segoe Script', 'Comic Sans MS', cursive" fill="#e0559c">Design</text><rect x="461.0" y="754" width="128" height="96" rx="20" fill="#c4ddf5" stroke="#4d98e2" stroke-width="2"/><g><animateTransform attributeName="transform" type="rotate" values="0 571.0 772; 12 571.0 772; 0 571.0 772; -12 571.0 772; 0 571.0 772" dur="3.0s" begin="0.0s" repeatCount="indefinite"/><ellipse cx="571.0" cy="765.4" rx="3.84" ry="6.6000000000000005" fill="#62a4e6" opacity="0.9" transform="rotate(0 571.0 772)"/><ellipse cx="571.0" cy="765.4" rx="3.84" ry="6.6000000000000005" fill="#62a4e6" opacity="0.9" transform="rotate(72 571.0 772)"/><ellipse cx="571.0" cy="765.4" rx="3.84" ry="6.6000000000000005" fill="#62a4e6" opacity="0.9" transform="rotate(144 571.0 772)"/><ellipse cx="571.0" cy="765.4" rx="3.84" ry="6.6000000000000005" fill="#62a4e6" opacity="0.9" transform="rotate(216 571.0 772)"/><ellipse cx="571.0" cy="765.4" rx="3.84" ry="6.6000000000000005" fill="#62a4e6" opacity="0.9" transform="rotate(288 571.0 772)"/><circle cx="571.0" cy="772" r="2.64" fill="#538bc3" opacity="0.9"/></g><text class="body" x="515.0" y="808.0" text-anchor="middle" font-size="24" font-weight="bold" fill="#2264a6">Ps</text><text class="body" x="525.0" y="838" text-anchor="middle" font-size="13" fill="#8a5a6a">Photoshop</text><rect x="611.0" y="754" width="128" height="96" rx="20" fill="#f8dac1" stroke="#e99143" stroke-width="2"/><g><animateTransform attributeName="transform" type="rotate" values="0 721.0 772; 12 721.0 772; 0 721.0 772; -12 721.0 772; 0 721.0 772" dur="3.4s" begin="0.3s" repeatCount="indefinite"/><ellipse cx="721.0" cy="765.4" rx="3.84" ry="6.6000000000000005" fill="#ec9e59" opacity="0.9" transform="rotate(0 721.0 772)"/><ellipse cx="721.0" cy="765.4" rx="3.84" ry="6.6000000000000005" fill="#ec9e59" opacity="0.9" transform="rotate(72 721.0 772)"/><ellipse cx="721.0" cy="765.4" rx="3.84" ry="6.6000000000000005" fill="#ec9e59" opacity="0.9" transform="rotate(144 721.0 772)"/><ellipse cx="721.0" cy="765.4" rx="3.84" ry="6.6000000000000005" fill="#ec9e59" opacity="0.9" transform="rotate(216 721.0 772)"/><ellipse cx="721.0" cy="765.4" rx="3.84" ry="6.6000000000000005" fill="#ec9e59" opacity="0.9" transform="rotate(288 721.0 772)"/><circle cx="721.0" cy="772" r="2.64" fill="#c8864b" opacity="0.9"/></g><text class="body" x="665.0" y="808.0" text-anchor="middle" font-size="24" font-weight="bold" fill="#ac5e19">Ai</text><text class="body" x="675.0" y="838" text-anchor="middle" font-size="13" fill="#8a5a6a">Illustrator</text><rect x="761.0" y="754" width="128" height="96" rx="20" fill="#f7cec8" stroke="#e86c5a" stroke-width="2"/><g><animateTransform attributeName="transform" type="rotate" values="0 871.0 772; 12 871.0 772; 0 871.0 772; -12 871.0 772; 0 871.0 772" dur="3.8s" begin="0.6s" repeatCount="indefinite"/><ellipse cx="871.0" cy="765.4" rx="3.84" ry="6.6000000000000005" fill="#eb7e6d" opacity="0.9" transform="rotate(0 871.0 772)"/><ellipse cx="871.0" cy="765.4" rx="3.84" ry="6.6000000000000005" fill="#eb7e6d" opacity="0.9" transform="rotate(72 871.0 772)"/><ellipse cx="871.0" cy="765.4" rx="3.84" ry="6.6000000000000005" fill="#eb7e6d" opacity="0.9" transform="rotate(144 871.0 772)"/><ellipse cx="871.0" cy="765.4" rx="3.84" ry="6.6000000000000005" fill="#eb7e6d" opacity="0.9" transform="rotate(216 871.0 772)"/><ellipse cx="871.0" cy="765.4" rx="3.84" ry="6.6000000000000005" fill="#eb7e6d" opacity="0.9" transform="rotate(288 871.0 772)"/><circle cx="871.0" cy="772" r="2.64" fill="#c76b5c" opacity="0.9"/></g><text class="body" x="815.0" y="808.0" text-anchor="middle" font-size="24" font-weight="bold" fill="#ab3e2d">Fg</text><text class="body" x="825.0" y="838" text-anchor="middle" font-size="13" fill="#8a5a6a">Figma</text><rect x="911.0" y="754" width="128" height="96" rx="20" fill="#bee4e4" stroke="#39afaf" stroke-width="2"/><g><animateTransform attributeName="transform" type="rotate" values="0 1021.0 772; 12 1021.0 772; 0 1021.0 772; -12 1021.0 772; 0 1021.0 772" dur="3.0s" begin="0.8999999999999999s" repeatCount="indefinite"/><ellipse cx="1021.0" cy="765.4" rx="3.84" ry="6.6000000000000005" fill="#51b9b9" opacity="0.9" transform="rotate(0 1021.0 772)"/><ellipse cx="1021.0" cy="765.4" rx="3.84" ry="6.6000000000000005" fill="#51b9b9" opacity="0.9" transform="rotate(72 1021.0 772)"/><ellipse cx="1021.0" cy="765.4" rx="3.84" ry="6.6000000000000005" fill="#51b9b9" opacity="0.9" transform="rotate(144 1021.0 772)"/><ellipse cx="1021.0" cy="765.4" rx="3.84" ry="6.6000000000000005" fill="#51b9b9" opacity="0.9" transform="rotate(216 1021.0 772)"/><ellipse cx="1021.0" cy="765.4" rx="3.84" ry="6.6000000000000005" fill="#51b9b9" opacity="0.9" transform="rotate(288 1021.0 772)"/><circle cx="1021.0" cy="772" r="2.64" fill="#449d9d" opacity="0.9"/></g><text class="body" x="965.0" y="808.0" text-anchor="middle" font-size="24" font-weight="bold" fill="#117979">Cv</text><text class="body" x="975.0" y="838" text-anchor="middle" font-size="13" fill="#8a5a6a">Canva</text><text x="750.0" y="952" text-anchor="middle" font-size="30" font-family="'Brush Script MT', 'Segoe Script', 'Comic Sans MS', cursive" fill="#e0559c">Tools</text><rect x="386.0" y="978" width="128" height="96" rx="20" fill="#f7d3c9" stroke="#e87b5b" stroke-width="2"/><g><animateTransform attributeName="transform" type="rotate" values="0 496.0 996; 12 496.0 996; 0 496.0 996; -12 496.0 996; 0 496.0 996" dur="3.0s" begin="0.0s" repeatCount="indefinite"/><ellipse cx="496.0" cy="989.4" rx="3.84" ry="6.6000000000000005" fill="#eb8a6f" opacity="0.9" transform="rotate(0 496.0 996)"/><ellipse cx="496.0" cy="989.4" rx="3.84" ry="6.6000000000000005" fill="#eb8a6f" opacity="0.9" transform="rotate(72 496.0 996)"/><ellipse cx="496.0" cy="989.4" rx="3.84" ry="6.6000000000000005" fill="#eb8a6f" opacity="0.9" transform="rotate(144 496.0 996)"/><ellipse cx="496.0" cy="989.4" rx="3.84" ry="6.6000000000000005" fill="#eb8a6f" opacity="0.9" transform="rotate(216 496.0 996)"/><ellipse cx="496.0" cy="989.4" rx="3.84" ry="6.6000000000000005" fill="#eb8a6f" opacity="0.9" transform="rotate(288 496.0 996)"/><circle cx="496.0" cy="996" r="2.64" fill="#c7755e" opacity="0.9"/></g><text class="body" x="440.0" y="1032.0" text-anchor="middle" font-size="24" font-weight="bold" fill="#ab4b2f">Git</text><text class="body" x="450.0" y="1062" text-anchor="middle" font-size="13" fill="#8a5a6a">Git</text><rect x="536.0" y="978" width="128" height="96" rx="20" fill="#dad1e6" stroke="#8e76b4" stroke-width="2"/><g><animateTransform attributeName="transform" type="rotate" values="0 646.0 996; 12 646.0 996; 0 646.0 996; -12 646.0 996; 0 646.0 996" dur="3.4s" begin="0.3s" repeatCount="indefinite"/><ellipse cx="646.0" cy="989.4" rx="3.84" ry="6.6000000000000005" fill="#9c86bd" opacity="0.9" transform="rotate(0 646.0 996)"/><ellipse cx="646.0" cy="989.4" rx="3.84" ry="6.6000000000000005" fill="#9c86bd" opacity="0.9" transform="rotate(72 646.0 996)"/><ellipse cx="646.0" cy="989.4" rx="3.84" ry="6.6000000000000005" fill="#9c86bd" opacity="0.9" transform="rotate(144 646.0 996)"/><ellipse cx="646.0" cy="989.4" rx="3.84" ry="6.6000000000000005" fill="#9c86bd" opacity="0.9" transform="rotate(216 646.0 996)"/><ellipse cx="646.0" cy="989.4" rx="3.84" ry="6.6000000000000005" fill="#9c86bd" opacity="0.9" transform="rotate(288 646.0 996)"/><circle cx="646.0" cy="996" r="2.64" fill="#8471a0" opacity="0.9"/></g><text class="body" x="590.0" y="1032.0" text-anchor="middle" font-size="24" font-weight="bold" fill="#5c467d">Gh</text><text class="body" x="600.0" y="1062" text-anchor="middle" font-size="13" fill="#8a5a6a">GitHub</text><rect x="686.0" y="978" width="128" height="96" rx="20" fill="#c8dff0" stroke="#5a9fd2" stroke-width="2"/><g><animateTransform attributeName="transform" type="rotate" values="0 796.0 996; 12 796.0 996; 0 796.0 996; -12 796.0 996; 0 796.0 996" dur="3.8s" begin="0.6s" repeatCount="indefinite"/><ellipse cx="796.0" cy="989.4" rx="3.84" ry="6.6000000000000005" fill="#6eabd8" opacity="0.9" transform="rotate(0 796.0 996)"/><ellipse cx="796.0" cy="989.4" rx="3.84" ry="6.6000000000000005" fill="#6eabd8" opacity="0.9" transform="rotate(72 796.0 996)"/><ellipse cx="796.0" cy="989.4" rx="3.84" ry="6.6000000000000005" fill="#6eabd8" opacity="0.9" transform="rotate(144 796.0 996)"/><ellipse cx="796.0" cy="989.4" rx="3.84" ry="6.6000000000000005" fill="#6eabd8" opacity="0.9" transform="rotate(216 796.0 996)"/><ellipse cx="796.0" cy="989.4" rx="3.84" ry="6.6000000000000005" fill="#6eabd8" opacity="0.9" transform="rotate(288 796.0 996)"/><circle cx="796.0" cy="996" r="2.64" fill="#5d91b7" opacity="0.9"/></g><text class="body" x="740.0" y="1032.0" text-anchor="middle" font-size="24" font-weight="bold" fill="#2e6b98">VS</text><text class="body" x="750.0" y="1062" text-anchor="middle" font-size="13" fill="#8a5a6a">VS Code</text><rect x="836.0" y="978" width="128" height="96" rx="20" fill="#ded2ef" stroke="#9c77cf" stroke-width="2"/><g><animateTransform attributeName="transform" type="rotate" values="0 946.0 996; 12 946.0 996; 0 946.0 996; -12 946.0 996; 0 946.0 996" dur="3.0s" begin="0.8999999999999999s" repeatCount="indefinite"/><ellipse cx="946.0" cy="989.4" rx="3.84" ry="6.6000000000000005" fill="#a887d5" opacity="0.9" transform="rotate(0 946.0 996)"/><ellipse cx="946.0" cy="989.4" rx="3.84" ry="6.6000000000000005" fill="#a887d5" opacity="0.9" transform="rotate(72 946.0 996)"/><ellipse cx="946.0" cy="989.4" rx="3.84" ry="6.6000000000000005" fill="#a887d5" opacity="0.9" transform="rotate(144 946.0 996)"/><ellipse cx="946.0" cy="989.4" rx="3.84" ry="6.6000000000000005" fill="#a887d5" opacity="0.9" transform="rotate(216 946.0 996)"/><ellipse cx="946.0" cy="989.4" rx="3.84" ry="6.6000000000000005" fill="#a887d5" opacity="0.9" transform="rotate(288 946.0 996)"/><circle cx="946.0" cy="996" r="2.64" fill="#8e72b5" opacity="0.9"/></g><text class="body" x="890.0" y="1032.0" text-anchor="middle" font-size="24" font-weight="bold" fill="#684795">VS</text><text class="body" x="900.0" y="1062" text-anchor="middle" font-size="13" fill="#8a5a6a">Vis. Studio</text><rect x="986.0" y="978" width="128" height="96" rx="20" fill="#f7d6c9" stroke="#e8855b" stroke-width="2"/><g><animateTransform attributeName="transform" type="rotate" values="0 1096.0 996; 12 1096.0 996; 0 1096.0 996; -12 1096.0 996; 0 1096.0 996" dur="3.4s" begin="0.0s" repeatCount="indefinite"/><ellipse cx="1096.0" cy="989.4" rx="3.84" ry="6.6000000000000005" fill="#eb936f" opacity="0.9" transform="rotate(0 1096.0 996)"/><ellipse cx="1096.0" cy="989.4" rx="3.84" ry="6.6000000000000005" fill="#eb936f" opacity="0.9" transform="rotate(72 1096.0 996)"/><ellipse cx="1096.0" cy="989.4" rx="3.84" ry="6.6000000000000005" fill="#eb936f" opacity="0.9" transform="rotate(144 1096.0 996)"/><ellipse cx="1096.0" cy="989.4" rx="3.84" ry="6.6000000000000005" fill="#eb936f" opacity="0.9" transform="rotate(216 1096.0 996)"/><ellipse cx="1096.0" cy="989.4" rx="3.84" ry="6.6000000000000005" fill="#eb936f" opacity="0.9" transform="rotate(288 1096.0 996)"/><circle cx="1096.0" cy="996" r="2.64" fill="#c77c5e" opacity="0.9"/></g><text class="body" x="1040.0" y="1032.0" text-anchor="middle" font-size="24" font-weight="bold" fill="#ab542f">Pm</text><text class="body" x="1050.0" y="1062" text-anchor="middle" font-size="13" fill="#8a5a6a">Postman</text></svg>